<svg width="87" height="87" viewBox="0 0 87 87" fill="none" xmlns="http://www.w3.org/2000/svg">
<g clip-path="url(#clip0_193_2954)">
<path d="M86.4086 43.5001C86.4086 19.8482 67.2349 0.674522 43.583 0.674522C19.9311 0.674522 0.757446 19.8482 0.757446 43.5001C0.757446 67.152 19.9311 86.3257 43.583 86.3257C67.2349 86.3257 86.4086 67.152 86.4086 43.5001Z" stroke="#FF00B7" stroke-width="2"/>
<path d="M69.2984 43.958C69.4824 43.772 69.5858 43.5198 69.5858 43.2569C69.5858 42.9939 69.4824 42.7417 69.2984 42.5557L63.0527 36.2447C62.8676 36.0641 62.6197 35.9641 62.3623 35.9664C62.105 35.9687 61.8589 36.073 61.6769 36.2568C61.4949 36.4407 61.3917 36.6894 61.3895 36.9494C61.3873 37.2094 61.4862 37.4599 61.665 37.647L67.2168 43.2569L61.665 48.8668C61.4862 49.0538 61.3873 49.3043 61.3895 49.5643C61.3917 49.8243 61.4949 50.073 61.6769 50.2569C61.8589 50.4408 62.105 50.5451 62.3623 50.5473C62.6197 50.5496 62.8676 50.4496 63.0527 50.269L69.2984 43.958ZM18.5522 44.2485H68.6046V42.2652H18.5522V44.2485Z" fill="#FF00B7"/>
</g>
<defs>
<clipPath id="clip0_193_2954">
<rect width="87" height="87" fill="white" transform="matrix(0 -1 1 0 0.0830078 87)"/>
</clipPath>
</defs>
</svg>
