<svg width="35" height="35" viewBox="0 0 35 35" fill="none" xmlns="http://www.w3.org/2000/svg">
<g clip-path="url(#clip0_7_69)">
<path fill-rule="evenodd" clip-rule="evenodd" d="M34.1979 8.67419C34.44 7.87794 34.1979 7.29169 33.0385 7.29169H29.2104C28.2362 7.29169 27.7871 7.79773 27.5435 8.35627C27.5435 8.35627 25.5967 13.0171 22.839 16.0446C21.9465 16.9225 21.541 17.2011 21.054 17.2011C20.8104 17.2011 20.4444 16.9225 20.4444 16.1248V8.67419C20.4444 7.71752 20.176 7.29169 19.3652 7.29169H13.3452C12.7371 7.29169 12.371 7.73502 12.371 8.15648C12.371 9.0621 13.7506 9.2721 13.8921 11.8213V17.36C13.8921 18.5748 13.669 18.795 13.1819 18.795C11.884 18.795 8.72667 14.1123 6.85271 8.75439C6.48958 7.71169 6.12208 7.29169 5.14354 7.29169H1.3125C0.21875 7.29169 0 7.79773 0 8.35627C0 9.35085 1.29792 14.2917 6.04479 20.8265C9.20937 25.289 13.6646 27.7084 17.7231 27.7084C20.1571 27.7084 20.4575 27.1717 20.4575 26.2456V22.8725C20.4575 21.7977 20.6879 21.5834 21.4594 21.5834C22.0281 21.5834 23.0008 21.8634 25.2729 24.0144C27.8687 26.565 28.296 27.7084 29.7573 27.7084H33.5854C34.6792 27.7084 35.2275 27.1717 34.9125 26.11C34.5654 25.0542 33.3258 23.5215 31.6823 21.7029C30.7898 20.6675 29.451 19.5519 29.0442 18.9934C28.4769 18.2773 28.6387 17.9579 29.0442 17.3206C29.0442 17.3206 33.7108 10.8661 34.1965 8.67419H34.1979Z" fill="white"/>
</g>
<defs>
<clipPath id="clip0_7_69">
<rect width="35" height="35" fill="white"/>
</clipPath>
</defs>
</svg>
