<svg width="35" height="35" viewBox="0 0 35 35" fill="none" xmlns="http://www.w3.org/2000/svg">
<g clip-path="url(#clip0_157_342)">
<path d="M34.2708 9.48938C34.0726 8.78243 33.6866 8.14239 33.1537 7.6373C32.6058 7.11668 31.9343 6.74427 31.2025 6.55522C28.4637 5.83334 17.4912 5.83334 17.4912 5.83334C12.9169 5.7813 8.34373 6.0102 3.79748 6.51876C3.06568 6.72178 2.39539 7.10251 1.84623 7.62709C1.30665 8.14626 0.915818 8.78647 0.711651 9.48793C0.221203 12.1301 -0.0170896 14.8128 -1.54685e-05 17.5C-0.0175155 20.1848 0.220193 22.8667 0.711651 25.5121C0.911443 26.2106 1.30082 26.8479 1.84186 27.3627C2.3829 27.8775 3.05665 28.2494 3.79748 28.4463C6.57269 29.1667 17.4912 29.1667 17.4912 29.1667C22.0714 29.2188 26.6504 28.9899 31.2025 28.4813C31.9343 28.2922 32.6058 27.9198 33.1537 27.3992C33.6864 26.8942 34.072 26.2541 34.2694 25.5471C34.7726 22.906 35.0173 20.2221 35 17.5336C35.0378 14.8336 34.7935 12.1371 34.2708 9.48793V9.48938ZM14.0029 22.4933V12.5081L23.1321 17.5015L14.0029 22.4933Z" fill="white"/>
</g>
<defs>
<clipPath id="clip0_157_342">
<rect width="35" height="35" fill="white"/>
</clipPath>
</defs>
</svg>
