<?xml version="1.0" standalone="no"?>
<!DOCTYPE svg PUBLIC "-//W3C//DTD SVG 20010904//EN"
 "http://www.w3.org/TR/2001/REC-SVG-20010904/DTD/svg10.dtd">
<svg version="1.0" xmlns="http://www.w3.org/2000/svg"
 width="1170.000000pt" height="1170.000000pt" viewBox="0 0 1170.000000 1170.000000"
 preserveAspectRatio="xMidYMid meet">

<g transform="translate(0.000000,1170.000000) scale(0.100000,-0.100000)"
fill="#000000" stroke="none">
<path d="M4633 8121 c-3 -13 -17 -22 -44 -26 -22 -4 -39 -12 -39 -20 0 -8 -17
-16 -40 -20 -30 -5 -40 -11 -40 -26 0 -12 -7 -19 -19 -19 -15 0 -21 -10 -26
-40 -5 -30 -11 -40 -26 -40 -15 0 -19 -7 -19 -39 0 -30 -4 -40 -20 -44 -19 -5
-20 -14 -20 -191 0 -179 -1 -186 -20 -186 -19 0 -20 -7 -20 -105 0 -98 -1
-105 -20 -105 -13 0 -20 -7 -20 -20 0 -11 7 -20 15 -20 8 0 15 -9 15 -20 0
-11 -7 -20 -15 -20 -13 0 -15 -178 -15 -1545 0 -1538 0 -1545 20 -1545 19 0
20 -7 20 -145 0 -138 1 -145 20 -145 17 0 20 -7 20 -40 0 -33 3 -40 20 -40 16
0 20 -7 20 -37 0 -68 9 -83 52 -89 l39 -7 -6 -38 c-6 -35 -4 -39 13 -39 14 0
22 -8 24 -22 2 -15 11 -24 26 -26 12 -2 22 -9 22 -17 0 -8 16 -16 39 -20 27
-4 41 -13 44 -26 3 -11 14 -19 26 -19 12 0 21 -6 21 -14 0 -20 46 -26 205 -26
159 0 205 6 205 26 0 9 11 14 29 14 54 0 89 12 94 31 4 15 14 19 46 19 29 0
41 4 41 14 0 9 15 17 40 21 30 5 40 11 40 26 0 16 7 19 45 19 38 0 45 3 45 20
0 17 7 20 40 20 33 0 40 3 40 20 0 17 7 20 40 20 33 0 40 3 40 19 0 15 10 21
39 26 27 4 41 13 44 26 4 15 14 19 46 19 34 0 41 3 41 20 0 13 7 20 20 20 13
0 20 7 20 20 0 17 7 20 40 20 33 0 40 4 40 19 0 15 10 20 45 25 28 5 45 12 45
21 0 8 16 16 40 20 25 4 40 12 40 21 0 8 9 14 20 14 13 0 20 7 20 19 0 16 9
21 45 27 27 4 45 12 45 19 0 8 17 16 40 20 30 5 40 11 40 26 0 16 7 19 40 19
33 0 40 3 40 20 0 15 7 20 25 20 18 0 25 5 25 19 0 15 10 21 40 26 23 4 40 12
40 20 0 8 17 16 39 20 27 4 41 13 44 26 4 14 14 19 40 19 26 0 36 5 40 20 3
12 14 20 26 20 14 0 21 6 21 20 0 17 7 20 40 20 32 0 40 4 40 19 0 14 10 20
40 25 26 4 40 11 40 21 0 9 10 15 25 15 18 0 25 5 25 19 0 15 10 21 40 26 23
4 40 12 40 20 0 8 17 16 39 20 27 4 41 13 44 26 4 14 14 19 41 19 29 0 36 4
36 20 0 15 7 20 25 20 18 0 25 5 25 19 0 15 10 21 40 26 25 4 40 12 40 21 0 8
9 14 21 14 12 0 23 8 26 19 3 13 17 22 44 26 24 4 39 12 39 21 0 8 15 16 40
20 30 5 40 11 40 25 0 15 8 19 40 19 33 0 40 3 40 20 0 13 7 20 20 20 13 0 20
7 20 19 0 15 10 20 45 25 28 5 45 12 45 21 0 8 16 16 40 20 30 5 40 11 40 26
0 12 7 19 20 19 11 0 20 7 20 15 0 9 9 15 21 15 12 0 23 8 26 20 4 14 17 22
44 26 29 5 39 11 39 25 0 12 7 19 20 19 13 0 20 7 20 19 0 15 10 21 40 26 25
4 40 12 40 21 0 8 9 14 20 14 13 0 20 7 20 20 0 14 7 20 21 20 12 0 23 8 26
19 3 11 13 21 24 24 10 3 19 12 19 20 0 8 9 17 20 20 12 3 20 14 20 26 0 14 6
21 20 21 13 0 20 7 20 20 0 13 7 20 19 20 14 0 20 10 25 40 4 24 12 40 20 40
13 0 26 48 26 103 0 20 5 27 20 27 17 0 20 7 20 40 0 33 3 40 20 40 18 0 20 7
20 60 0 53 2 60 20 60 19 0 20 7 20 90 0 83 -1 90 -20 90 -18 0 -20 7 -20 60
0 53 -2 60 -20 60 -14 0 -20 7 -20 21 0 12 -8 23 -19 26 -11 3 -21 13 -24 24
-3 10 -12 19 -20 19 -8 0 -17 9 -20 20 -3 12 -14 20 -26 20 -14 0 -21 6 -21
20 0 17 -7 20 -40 20 -33 0 -40 3 -40 20 0 15 -7 20 -25 20 -18 0 -25 5 -25
20 0 17 -7 20 -40 20 -36 0 -40 3 -40 25 0 23 -4 25 -40 25 -33 0 -40 3 -40
20 0 13 -7 20 -20 20 -11 0 -20 6 -20 14 0 10 -16 17 -45 22 -35 5 -45 10 -45
25 0 15 -7 19 -40 19 -33 0 -40 3 -40 20 0 17 -7 20 -40 20 -33 0 -40 3 -40
20 0 15 -7 20 -25 20 -18 0 -25 5 -25 19 0 16 -8 20 -37 23 -31 2 -39 7 -41
26 -3 18 -10 22 -43 22 -32 0 -39 3 -39 20 0 13 -7 20 -20 20 -11 0 -20 6 -20
14 0 10 -16 17 -45 22 -35 5 -45 10 -45 25 0 15 -7 19 -40 19 -33 0 -40 3 -40
20 0 17 -7 20 -40 20 -33 0 -40 3 -40 20 0 14 -7 20 -21 20 -12 0 -23 8 -26
19 -4 14 -15 21 -42 23 -29 2 -37 8 -39 26 -3 18 -10 22 -43 22 -32 0 -39 3
-39 20 0 17 -7 20 -40 20 -33 0 -40 3 -40 20 0 15 -7 20 -25 20 -18 0 -25 5
-25 20 0 17 -7 20 -40 20 -36 0 -40 3 -40 25 0 23 -4 25 -40 25 -33 0 -40 3
-40 20 0 13 -7 20 -19 20 -10 0 -21 9 -24 20 -4 16 -14 20 -46 20 -34 0 -41 3
-41 20 0 17 -7 20 -40 20 -33 0 -40 3 -40 20 0 17 -7 20 -40 20 -33 0 -40 3
-40 20 0 15 -7 20 -25 20 -18 0 -25 5 -25 20 0 17 -7 20 -40 20 -36 0 -40 3
-40 25 0 23 -4 25 -40 25 -33 0 -40 3 -40 20 0 15 -7 20 -25 20 -15 0 -25 6
-25 15 0 10 -14 17 -40 21 -30 5 -40 11 -40 25 0 15 -8 19 -40 19 -33 0 -40 3
-40 20 0 17 -7 20 -39 20 -33 0 -40 4 -43 23 -2 14 -11 23 -25 25 -13 2 -23
10 -23 18 0 10 -12 14 -40 14 -36 0 -40 3 -40 25 0 23 -4 25 -40 25 -33 0 -40
3 -40 20 0 17 -7 20 -40 20 -33 0 -40 3 -40 20 0 15 -7 20 -25 20 -18 0 -25 5
-25 20 0 17 -7 20 -39 20 -33 0 -40 4 -43 23 -2 17 -10 23 -39 25 -27 2 -38 9
-42 23 -3 11 -14 19 -26 19 -12 0 -21 6 -21 14 0 9 -15 17 -40 21 -30 5 -40
11 -40 26 0 16 -7 19 -40 19 -33 0 -40 3 -40 20 0 17 -7 20 -40 20 -33 0 -40
3 -40 20 0 15 -7 20 -25 20 -18 0 -25 5 -25 20 0 17 -7 20 -40 20 -33 0 -40 3
-40 20 0 17 -7 20 -41 20 -32 0 -42 4 -46 19 -6 25 -41 31 -175 31 -100 0
-110 -2 -115 -19z m3717 -2676 c0 -9 -9 -15 -25 -15 -20 0 -25 -5 -25 -25 0
-18 -5 -25 -20 -25 -15 0 -20 7 -20 25 0 18 5 25 20 25 11 0 20 7 20 15 0 9 9
15 25 15 16 0 25 -6 25 -15z m-130 -85 c0 -13 -7 -20 -20 -20 -13 0 -20 7 -20
20 0 13 7 20 20 20 13 0 20 -7 20 -20z m-90 -41 c0 -14 -5 -19 -17 -17 -26 5
-29 38 -4 38 15 0 21 -6 21 -21z m-120 -79 c0 -13 -7 -20 -20 -20 -13 0 -20 7
-20 20 0 13 7 20 20 20 13 0 20 -7 20 -20z m-90 -45 c0 -8 -9 -15 -20 -15 -11
0 -20 7 -20 15 0 8 9 15 20 15 11 0 20 -7 20 -15z m-80 -40 c0 -8 -9 -15 -20
-15 -11 0 -20 7 -20 15 0 8 9 15 20 15 11 0 20 -7 20 -15z m-40 -46 c0 -15 -5
-20 -22 -17 -34 5 -37 38 -4 38 20 0 26 -5 26 -21z m-80 -40 c0 -15 -5 -20
-22 -17 -34 5 -37 38 -4 38 20 0 26 -5 26 -21z m-90 -39 c0 -13 -7 -20 -20
-20 -13 0 -20 7 -20 20 0 13 7 20 20 20 13 0 20 -7 20 -20z m-120 -80 c0 -13
-7 -20 -20 -20 -13 0 -20 7 -20 20 0 13 7 20 20 20 13 0 20 -7 20 -20z m-90
-40 c0 -13 -7 -20 -20 -20 -19 0 -27 20 -13 33 13 14 33 6 33 -13z m-80 -50
c0 -13 -7 -20 -20 -20 -13 0 -20 7 -20 20 0 13 7 20 20 20 13 0 20 -7 20 -20z
m-120 -80 c0 -15 -7 -20 -25 -20 -18 0 -25 5 -25 20 0 15 7 20 25 20 18 0 25
-5 25 -20z m-90 -40 c0 -13 -7 -20 -20 -20 -13 0 -20 7 -20 20 0 13 7 20 20
20 13 0 20 -7 20 -20z m-80 -45 c0 -8 -9 -15 -19 -15 -13 0 -21 -8 -23 -22 -4
-30 -43 -32 -43 -3 0 13 8 21 23 23 12 2 22 10 22 18 0 8 9 14 20 14 11 0 20
-7 20 -15z m-122 -82 c-2 -10 -13 -19 -26 -21 -17 -3 -22 2 -22 17 0 16 6 21
26 21 19 0 25 -5 22 -17z m-88 -43 c0 -13 -7 -20 -20 -20 -13 0 -20 7 -20 20
0 13 7 20 20 20 13 0 20 -7 20 -20z m-120 -80 c0 -15 -7 -20 -25 -20 -18 0
-25 5 -25 20 0 15 7 20 25 20 18 0 25 -5 25 -20z m-90 -40 c0 -13 -7 -20 -20
-20 -19 0 -27 20 -13 33 13 14 33 6 33 -13z m-80 -45 c0 -8 -9 -15 -20 -15
-11 0 -20 7 -20 15 0 8 9 15 20 15 11 0 20 -7 20 -15z m-40 -46 c0 -15 -5 -20
-22 -17 -34 5 -37 38 -4 38 20 0 26 -5 26 -21z m-82 -36 c-2 -10 -13 -19 -26
-21 -17 -3 -22 2 -22 17 0 16 6 21 26 21 19 0 25 -5 22 -17z m-88 -43 c0 -13
-7 -20 -20 -20 -13 0 -20 7 -20 20 0 13 7 20 20 20 13 0 20 -7 20 -20z m-120
-80 c0 -15 -7 -20 -25 -20 -24 0 -34 18 -18 33 15 15 43 7 43 -13z m-90 -45
c0 -25 -23 -35 -35 -15 -10 16 2 40 20 40 9 0 15 -9 15 -25z m-80 -45 c0 -13
-7 -20 -20 -20 -13 0 -20 7 -20 20 0 13 7 20 20 20 13 0 20 -7 20 -20z m-120
-80 c0 -15 -7 -20 -25 -20 -18 0 -25 5 -25 20 0 15 7 20 25 20 18 0 25 -5 25
-20z m-90 -40 c0 -13 -7 -20 -20 -20 -13 0 -20 7 -20 20 0 13 7 20 20 20 13 0
20 -7 20 -20z m-90 -45 c0 -8 -6 -15 -14 -15 -8 0 -16 -10 -18 -22 -4 -30 -43
-32 -43 -3 0 13 8 21 23 23 12 2 22 10 22 18 0 8 7 14 15 14 8 0 15 -7 15 -15z
m-120 -85 c0 -13 -7 -20 -20 -20 -13 0 -20 7 -20 20 0 13 7 20 20 20 13 0 20
-7 20 -20z m-80 -40 c0 -13 -7 -20 -20 -20 -13 0 -20 7 -20 20 0 13 7 20 20
20 13 0 20 -7 20 -20z m-120 -80 c0 -15 -7 -20 -25 -20 -18 0 -25 5 -25 20 0
15 7 20 25 20 18 0 25 -5 25 -20z m-90 -40 c0 -13 -7 -20 -20 -20 -13 0 -20 7
-20 20 0 13 7 20 20 20 13 0 20 -7 20 -20z m-80 -45 c0 -8 -9 -15 -20 -15 -11
0 -20 7 -20 15 0 8 9 15 20 15 11 0 20 -7 20 -15z m-40 -45 c0 -15 -7 -20 -25
-20 -18 0 -25 5 -25 20 0 15 7 20 25 20 18 0 25 -5 25 -20z m-90 -40 c0 -13
-7 -20 -20 -20 -13 0 -20 7 -20 20 0 13 7 20 20 20 13 0 20 -7 20 -20z m-80
-40 c0 -13 -7 -20 -20 -20 -13 0 -20 7 -20 20 0 13 7 20 20 20 13 0 20 -7 20
-20z m-452 -42 c-2 -15 -11 -24 -25 -26 -19 -3 -23 1 -23 22 0 21 5 26 26 26
21 0 25 -4 22 -22z m372 2 c0 -13 -7 -20 -20 -20 -13 0 -20 7 -20 20 0 13 7
20 20 20 13 0 20 -7 20 -20z m-130 -45 c0 -21 -5 -22 -59 -21 -63 1 -77 7 -68
29 3 10 24 14 66 14 56 0 61 -2 61 -22z"/>
</g>
</svg>
